<?xml version="1.0" encoding="utf-8"?>
<!-- Generator: Adobe Illustrator 16.0.0, SVG Export Plug-In . SVG Version: 6.00 Build 0)  -->
<!DOCTYPE svg PUBLIC "-//W3C//DTD SVG 1.1//EN" "http://www.w3.org/Graphics/SVG/1.1/DTD/svg11.dtd">
<svg version="1.1" id="Layer_1" xmlns="http://www.w3.org/2000/svg" xmlns:xlink="http://www.w3.org/1999/xlink" x="0px" y="0px"
	 width="107px" height="26px" viewBox="0 0 107 26" style="enable-background:new 0 0 107 26;" xml:space="preserve">
<style type="text/css">
<![CDATA[
	.st0{clip-path:url(#SVGID_2_);}
	.st1{fill-rule:evenodd;clip-rule:evenodd;fill:#FFFFFF;}
]]>
</style>
<g>
	<defs>
		<rect id="SVGID_1_" x="-0.2" y="-0.2" width="107.2" height="26.2"/>
	</defs>
	<clipPath id="SVGID_2_">
		<use xlink:href="#SVGID_1_"  style="overflow:visible;"/>
	</clipPath>
	<g class="st0">
		<path class="st1" d="M60.9,12.9c-0.6,0.1-1.1,0.3-1.6,0.4c-0.4,0.1-0.8,0.1-1.2,0.1c-0.3,0-0.4,0.1-0.5,0.4
			c-0.4,1.2-0.7,2.4-1.2,3.6c-0.7,2-2,3.7-3.7,5.1c-0.7,0.5-1.5,0.7-2.2,0.2c-0.5-0.3-1.1-0.7-1.5-1.1c-0.6-0.6-0.7-1.5-0.8-2.3
			c-0.2-2,0.5-3.8,1.5-5.4c0.2-0.3,0.3-0.6,0.5-0.9c0,0,0-0.1,0-0.1c-0.5,0.1-1.1,0.3-1.6,0.4c-0.3,0.1-0.7,0.1-1,0.1
			c-0.4,0-0.5,0.2-0.6,0.5c-0.4,1.3-0.8,2.7-1.3,4c-0.7,1.9-2,3.4-3.5,4.7c-0.6,0.5-1.4,0.6-2.1,0.2c-0.5-0.3-1.1-0.7-1.5-1.1
			c-0.6-0.6-0.7-1.5-0.8-2.3c-0.2-1.9,0.4-3.7,1.4-5.3c0.2-0.3,0.3-0.6,0.5-0.9c-0.2,0.1-0.3,0.1-0.4,0.1c-0.7,0.2-1.3,0.4-2,0.5
			c-0.4,0.1-0.8,0-1.2-0.1c-0.4,0-0.5,0-0.4,0.4c0.1,1.2-0.2,2.3-0.7,3.3c-0.2,0.5-0.5,0.9-0.7,1.4c-0.6,1.4-1.5,2.5-2.6,3.5
			c-1.4,1.2-2.9,1.1-4.2-0.2c-0.5-0.5-0.5-1.1-0.5-1.8c-0.1-1.1,0.2-2.2,0.5-3.2c0.9-2.8,2.1-5.4,3.5-8c1.3-2.4,2.7-4.7,4-7.1
			c0.3-0.6,0.7-1.1,1.4-1.1c0.4,0,0.9,0.1,1.3,0.3c0.4,0.1,0.5,0.7,0.3,1.1c-0.1,0.1-0.1,0.2-0.2,0.3c-1.4,1.2-2.2,2.8-3.1,4.2
			c-0.9,1.3-1.7,2.7-2.4,4.1c-0.9,1.8-1.7,3.6-2.5,5.5c-0.5,1.3-0.8,2.7-0.8,4.1c0,0.8,0.4,1,1,0.6c0.4-0.3,0.8-0.8,1.1-1.2
			c1.2-1.6,1.9-3.5,2.4-5.5c0.2-0.7,0-1.5-0.5-2.1c-0.1-0.2-0.2-0.4-0.2-0.6c0-0.2,0.2-0.5,0.3-0.7c0.3-0.5,0.7-0.6,1.1-0.2
			c0.3,0.3,0.6,0.6,0.9,1c0.3,0.4,0.8,0.6,1.3,0.5c1.2-0.2,2.4-0.5,3.6-0.6c0.7-0.1,1.2-0.5,1.7-1.1c0.5-0.6,1.1-1.1,1.8-1.4
			c0.8-0.3,2.3,0.1,2.7,1.2c0,0,0,0,0,0.1c0.5,1.1,0.8,1.3,2,1.2c0.8,0,1.7-0.1,2.5,0c0.6,0.1,0.8,0,1.1-0.5
			c0.5-0.7,1.1-1.3,1.8-1.8c0.9-0.6,2.1-0.4,2.8,0.3c0.1,0.1,0.2,0.3,0.2,0.4c0.1,0.1,0.1,0.3,0.2,0.4c0.5,1.1,0.8,1.2,1.9,1.1
			c0.8,0,1.7-0.1,2.5,0c0.6,0.1,0.8,0,1.1-0.5c0.5-0.7,1.1-1.3,1.8-1.8c0.9-0.6,2.1-0.4,2.9,0.4c0.1,0.2,0.2,0.4,0.3,0.6
			c0.2,0.3,0.2,0.6,0.5,0.8c0.2,0.2,0.5,0.4,0.8,0.4c0.8,0,1.5-0.1,2.3,0c0.5,0,1,0.1,1.5,0.2c0.1,0,0.3,0.1,0.4,0.2
			c0.2,0.2,0.2,0.4,0,0.6c-0.4,0.2-0.8,0.4-1.2,0.5c-1,0.3-2,0.5-3,0.5c-0.1,0-0.3,0.2-0.3,0.4c-0.4,1.1-0.6,2.1-1,3.2
			c-0.8,2.2-2,4-3.8,5.5c-0.8,0.6-1.5,0.7-2.4,0.2c-0.5-0.3-1-0.6-1.4-1c-0.6-0.7-0.7-1.5-0.8-2.4c-0.2-1.7,0.3-3.2,1.1-4.7
			c0.2-0.4,0.5-0.9,0.7-1.3C60.8,13.1,60.8,13.1,60.9,12.9z M44.9,12.8c0-0.3-0.1-0.7-0.2-1c-0.1-0.3-0.3-0.5-0.4-0.8
			c-0.1-0.3-0.3-0.4-0.5-0.1c-0.3,0.3-0.7,0.6-0.9,1c-0.6,0.9-1.3,1.8-1.8,2.7c-0.8,1.4-1.4,2.8-1.5,4.4c-0.1,0.7,0.1,1.4,0.6,1.9
			c0.2,0.2,0.5,0.3,0.8,0.1c0.3-0.2,0.5-0.4,0.7-0.6c0.5-0.6,0.9-1.3,1.3-2C44,16.7,44.8,14.9,44.9,12.8z M55.5,12.7
			c0.2-0.6-0.4-1.1-0.6-1.8c-0.1-0.3-0.3-0.1-0.4,0c-0.3,0.3-0.6,0.5-0.9,0.8c-1,1.2-1.9,2.6-2.5,4c-0.5,1.1-0.8,2.1-1,3.3
			c-0.1,0.7,0.1,1.3,0.6,1.8c0.2,0.2,0.5,0.3,0.7,0.2c0.3-0.1,0.5-0.3,0.7-0.5c0.6-0.9,1.2-1.8,1.8-2.7
			C54.8,16.2,55.4,14.6,55.5,12.7z M66.1,12.9c0-0.3-0.1-0.7-0.1-1c-0.1-0.3-0.3-0.5-0.4-0.8c-0.1-0.3-0.3-0.3-0.5-0.1
			c-0.3,0.3-0.6,0.5-0.8,0.8c-0.9,1.1-1.7,2.3-2.3,3.6c-0.6,1.2-1,2.4-1.2,3.8c-0.1,0.7,0.1,1.3,0.6,1.8c0.2,0.2,0.5,0.3,0.8,0.1
			c0.3-0.2,0.5-0.4,0.7-0.6c0.7-1.1,1.4-2.1,2-3.2C65.5,15.8,66,14.4,66.1,12.9z"/>
		<path class="st1" d="M90.2,20.2c-0.4,0.5-0.7,0.9-1,1.3c-0.6,0.7-1.2,1.3-2.1,1.7c-0.6,0.3-1.3,0.4-2,0.1
			c-0.5-0.3-1.1-0.6-1.5-0.9c-0.6-0.5-0.7-1.2-0.7-1.9c0-1,0.3-2,0.6-2.9c0.8-2.1,1.7-4.2,2.7-6.1C87.4,9.3,88.7,7,90,4.8
			c0.2-0.3,0.3-0.7,0.5-1.1c0.1-0.2,0.2-0.5,0.3-0.7C91,2.4,91.5,2,92.2,2.1c0.2,0,0.3,0,0.5,0c0.6-0.1,1.1,0.3,1.1,1
			c0,0.5-0.1,0.9-0.4,1.3c-1,1.6-2,3.1-3.1,4.7c-1.2,1.9-2.4,3.8-3.4,5.9c-0.6,1.3-1.1,2.6-1.6,4C85,19.6,85,20.3,85.1,21
			c0.1,0.7,0.7,0.9,1.2,0.6c0.4-0.2,0.7-0.6,1-0.9c0.6-0.6,1.2-1.2,1.9-1.8c0.1-0.1,0.2-0.2,0.3-0.2c0.4-0.1,0.5-0.5,0.6-0.9
			c0.2-1.4,0.8-2.7,1.6-3.9c1-1.5,2.1-3,3.4-4.3c1.4-1.4,3.1-1.7,4.9-1c0.6,0.2,0.8,0.8,0.9,1.4c0,0.5,0,1-0.2,1.5
			c-0.4,1-0.9,1.8-1.6,2.6c-1.4,1.6-2.8,3.2-4.5,4.5c-0.5,0.4-1.1,0.8-1.7,1.1c-0.3,0.2-0.4,0.4-0.2,0.8c0.3,0.8,1.1,1.2,2,1
			c0.9-0.2,1.8-0.7,2.6-1.2c1-0.7,1.9-1.5,2.9-2.3c0.4-0.3,0.9-0.7,1.3-0.9c0.4-0.2,0.6-0.2,0.9,0.1c0.2,0.2,0.1,0.8,0,1
			c-1.8,1.8-3.6,3.5-5.9,4.8c-1.1,0.6-2.1,0.6-3.2,0.1c-0.1-0.1-0.2-0.1-0.4-0.2c-1.2-0.4-1.9-1.2-2.3-2.3
			C90.3,20.4,90.3,20.4,90.2,20.2z M92.4,17.2c0,0,0.1,0.1,0.1,0.1c0.2-0.1,0.3-0.2,0.5-0.3c1.3-1,2.3-2.1,3.4-3.3
			c0.7-0.8,1.2-1.6,1.7-2.5c0.1-0.2,0.2-0.4,0.2-0.6c0-0.2,0-0.4-0.1-0.7c-0.2,0.1-0.5,0.1-0.7,0.2c-0.6,0.5-1.2,0.9-1.7,1.4
			c-1.3,1.3-2.4,2.8-3.2,4.5C92.7,16.5,92.6,16.8,92.4,17.2z"/>
		<path class="st1" d="M79,15.4c-0.2,0.2-0.3,0.3-0.5,0.5c-1.4,1.6-2.8,3.3-4.4,4.8c-0.9,0.8-1.8,1.5-2.7,2.2
			C71.3,22.9,71.1,23,71,23c-0.8,0.2-1.5-0.3-2.2-0.7c-0.5-0.3-0.6-0.9-0.7-1.4c-0.2-0.9,0.1-1.7,0.5-2.5c1.1-2.5,2.8-4.5,4.8-6.2
			c0.6-0.5,1.1-0.9,1.7-1.3c0.9-0.6,2-0.8,3-0.3c0.4,0.2,0.7,0.3,1.1,0.4c0.2,0.1,0.4,0,0.5-0.2c0.7-1,1.5-1.9,2.2-3
			c1.2-1.9,2.3-3.8,3.4-5.7C85.7,1.8,86,1.4,86.3,1c0.1-0.2,0.4-0.3,0.6-0.3c0.4,0.1,0.9,0.3,1.2,0.6c0.1,0.1,0.1,0.5,0.1,0.8
			c0,0.2-0.1,0.4-0.3,0.6c-0.9,1.5-1.8,3-2.8,4.4c-1.7,2.5-3.1,5.2-3.9,8.1c-0.5,1.8-1.1,3.6-1.5,5.4c-0.2,0.8-0.2,1.7,0,2.5
			c0.2,0.5-0.6,1.1-1.2,1c-0.7-0.2-0.8-0.4-0.9-1c-0.3-2.5,0.3-4.9,1.3-7.1c0.1-0.1,0.1-0.3,0.2-0.4C79.1,15.6,79.1,15.5,79,15.4
			C79.1,15.4,79,15.4,79,15.4z M70.1,20.3c0,0.2,0,0.2,0.1,0.3c0.1,0.4,0.2,0.4,0.5,0.2c0.2-0.1,0.4-0.2,0.6-0.4
			c1.7-1.3,3.1-2.8,4.5-4.5c0.8-1,1.6-2,2.4-3c0.1-0.2,0.2-0.5,0.1-0.6c0-0.1-0.3-0.2-0.5-0.2c-0.6-0.1-1.1,0.2-1.5,0.5
			c-2.6,1.6-4.5,3.9-5.8,6.6C70.3,19.6,70.2,20,70.1,20.3z"/>
		<path class="st1" d="M13.5,24c-0.9,0-1.5-0.4-2.2-0.9c-1.2-0.9-1.6-2.3-2.2-3.5c-0.5-1-0.8-2.1-1.2-3.1c-0.1-0.2-0.2-0.3-0.3-0.5
			c-0.1,0.2-0.2,0.3-0.3,0.5c-0.8,1.7-1.3,3.6-1.6,5.4c0,0.2-0.1,0.4-0.2,0.5c-0.3,0.7-1.2,1-1.9,0.6c-0.4-0.2-0.5-0.6-0.3-1.2
			c0.6-1.9,1.2-3.8,2-5.6c1.5-3.8,3.2-7.5,4.8-11.3c0.3-0.7,0.6-1.4,0.9-2.1c0.2-0.6,0.3-0.6,0.9-0.5c0.2,0,0.4,0.1,0.7,0.1
			c0.7,0.1,1,0.5,0.8,1.2c-0.1,0.4-0.3,0.8-0.6,1.2c-1.1,1.6-2,3.3-2.7,5.1c-0.4,1.1-0.9,2.2-1.3,3.3c0,0.1,0,0.2-0.1,0.4
			c0.1,0,0.3,0,0.4-0.1c1.9-1.2,3.8-2.4,5-4.4c0.4-0.7,1.1-1,1.7-0.8c0.3,0.1,0.6,0.3,0.8,0.5c0.1,0.1,0.1,0.4,0.1,0.5
			c-0.3,0.5-0.6,0.9-1,1.4c-1.1,1.3-2.5,2.2-3.9,3.2c-0.5,0.4-1,0.7-1.6,1c-0.4,0.3-0.5,0.4-0.3,0.9c0.5,1.6,1.1,3.2,1.9,4.6
			c0.6,1,1.3,1.8,2.4,2.2c0.1,0.1,0.3,0.1,0.4,0.1c0.3,0.1,0.5,0.3,0.3,0.5C14.5,23.6,14.2,24.1,13.5,24z"/>
		<path class="st1" d="M22.5,20.3c0-0.4,0.1-0.8,0.1-1.3c0-0.3-0.1-0.4-0.3-0.2c-0.3,0.2-0.5,0.5-0.8,0.7c-1,0.9-2,1.8-3.1,2.6
			c-0.5,0.4-1.1,0.6-1.7,0.8c-0.2,0.1-0.5,0-0.7-0.1c-0.5-0.3-1-0.7-1.5-1.1c-0.6-0.5-0.7-1.1-0.6-1.8c0.1-1.1,0.5-2.1,1.1-3.1
			c0.9-1.4,1.8-2.7,3-3.8c1.8-1.7,3.9-3,6.4-3.7c0.8-0.2,1.5,0,2.1,0.5c0.3,0.3,0.5,0.6,0.8,0.9c0.2,0.3,0.4,0.4,0.7,0.5
			c0.1,0,0.3,0.1,0.4,0.1c0.4,0.2,0.5,0.4,0.2,0.7c-0.7,1-1.4,2.1-2.1,3.1c-1,1.6-1.5,3.4-1.6,5.2c-0.1,0.8,0.1,1.6,0.5,2.3
			c0.2,0.4,0.1,0.5-0.3,0.6c-0.3,0.1-0.6,0.2-0.9,0.1c-0.5,0-1-0.2-1.1-0.8C22.7,21.8,22.6,21.1,22.5,20.3
			C22.5,20.3,22.5,20.3,22.5,20.3z M15.6,20c0,0.9,0.4,1.2,1,0.8c0.4-0.2,0.8-0.5,1.1-0.8c1.1-1,2.3-1.9,3.4-2.9
			c0.9-0.8,1.8-1.6,2.5-2.5c0.8-0.9,1.4-1.9,2-2.8c0.1-0.2,0.1-0.5,0-0.6c-0.1-0.2-0.3-0.3-0.5-0.3c-0.2,0-0.4,0-0.5,0.1
			c-0.8,0.4-1.5,0.8-2.3,1.3c-2.4,1.5-4.5,3.3-5.9,5.8C16.1,18.7,15.7,19.4,15.6,20z"/>
	</g>
</g>
</svg>
